<?xml version="1.0" encoding="UTF-8" standalone="no"?>
<svg
   xmlns:dc="http://purl.org/dc/elements/1.1/"
   xmlns:cc="http://creativecommons.org/ns#"
   xmlns:rdf="http://www.w3.org/1999/02/22-rdf-syntax-ns#"
   xmlns:svg="http://www.w3.org/2000/svg"
   xmlns="http://www.w3.org/2000/svg"
   xmlns:sodipodi="http://sodipodi.sourceforge.net/DTD/sodipodi-0.dtd"
   xmlns:inkscape="http://www.inkscape.org/namespaces/inkscape"
   width="300"
   height="500"
   viewBox="0 0 79.375002 132.29167"
   version="1.1"
   id="svg1889"
   inkscape:version="1.0.1 (3bc2e813f5, 2020-09-07)"
   sodipodi:docname="quiz_card_front.svg">
  <defs
     id="defs1883" />
  <sodipodi:namedview
     id="base"
     pagecolor="#ffffff"
     bordercolor="#666666"
     borderopacity="1.0"
     inkscape:pageopacity="0.0"
     inkscape:pageshadow="2"
     inkscape:zoom="0.98994949"
     inkscape:cx="-244.37502"
     inkscape:cy="242.8398"
     inkscape:document-units="mm"
     inkscape:current-layer="layer1"
     inkscape:document-rotation="0"
     showgrid="true"
     inkscape:window-width="1858"
     inkscape:window-height="1057"
     inkscape:window-x="-8"
     inkscape:window-y="-8"
     inkscape:window-maximized="1">
    <inkscape:grid
       type="xygrid"
       id="grid1891" />
  </sodipodi:namedview>
  <metadata
     id="metadata1886">
    <rdf:RDF>
      <cc:Work
         rdf:about="">
        <dc:format>image/svg+xml</dc:format>
        <dc:type
           rdf:resource="http://purl.org/dc/dcmitype/StillImage" />
        <dc:title />
      </cc:Work>
    </rdf:RDF>
  </metadata>
  <g
     inkscape:label="Layer 1"
     inkscape:groupmode="layer"
     id="layer1">
    <rect
       style="fill:#133463;stroke-width:0.264583"
       id="rect1893"
       width="79.375"
       height="132.29167"
       x="0"
       y="0" />
    <rect
       style="fill:#f6ad48;stroke-width:0.264583;fill-opacity:1"
       id="rect1895"
       width="74.083336"
       height="127"
       x="2.6458333"
       y="2.6458333" />
    <circle
       style="fill:#e6002f;fill-opacity:1;stroke-width:0.26458333;stroke:#000000;stroke-opacity:1;stroke-miterlimit:4;stroke-dasharray:none"
       id="path1897"
       cx="53.175598"
       cy="70.222321"
       r="15" />
    <path
       style="fill:#213a70;fill-opacity:1;stroke:#000000;stroke-width:1;stroke-miterlimit:4;stroke-dasharray:none;stroke-opacity:1"
       d="m 10.77894,444.81837 v -44.5565 L 44.193413,368.47908 C 62.571372,350.99855 80.000001,335 80.000001,335 L 115,305 h 40 40 l 62.11528,63.03262 32.23509,32.23362 v 44.55431 44.55431 H 150.06465 10.77894 Z"
       id="path1915"
       transform="scale(0.26458333)"
       sodipodi:nodetypes="ccsccccccccccc" />
    <path
       style="fill:#ffffff;stroke:#000000;stroke-width:0.264583;stroke-miterlimit:4;stroke-dasharray:none;stroke-opacity:1"
       d="M 23.823129,97.241461 21.029175,94.996235 17.197917,92.339583 C 24.60625,85.725 30.490092,80.433332 30.490092,80.433332 l 9.126781,0.264584 11.976877,10e-7 L 63.5,92.604167 c 0,0 -2.863521,1.185834 -3.877879,1.660913 -4.041037,1.892648 -6.904528,3.203605 -7.452191,3.411762 l -0.57618,0.218991 -1.083218,-0.868198 c -0.595772,-0.477498 -1.902216,-1.527829 -2.903206,-2.334072 -1.000993,-0.80623 -1.894805,-1.466235 -1.986248,-1.466668 -0.187333,-9.75e-4 -0.20832,0.01517 -3.546773,2.710422 -1.335586,1.078269 -2.457088,1.96049 -2.49223,1.96049 -0.03514,0 -1.610905,-1.003073 -3.501692,-2.229049 -1.890792,-1.225975 -3.552731,-2.286188 -3.693205,-2.356003 -0.335087,-0.166557 -0.309826,-0.180568 -4.108761,2.277738 -1.734302,1.122264 -3.304583,2.551269 -3.431872,2.623864 0,0 -0.354341,-0.547864 -1.023416,-0.972896 z"
       id="path1917"
       sodipodi:nodetypes="cccccccsscsscssssscc" />
  </g>
</svg>
